<?xml version="1.0" encoding="UTF-8" standalone="no"?>
<svg xmlns:rdf="http://www.w3.org/1999/02/22-rdf-syntax-ns#" xmlns="http://www.w3.org/2000/svg" height="480" viewBox="0 0 349 480" width="349" version="1.1" xmlns:cc="http://creativecommons.org/ns#" xmlns:dc="http://purl.org/dc/elements/1.1/">
<path d="m118.25 479.34c-1.9525-0.78785-1.4701-4.4746 0.91812-7.0167l2.1681-2.3079-3.0403-1.0598c-4.0676-1.418-7.6548-10.003-11.377-27.228-1.3069-6.0474 1.2768-14.7 4.4016-14.74 3.1597-0.041 3.7543-1.5623 2.13-5.4499-2.566-6.1414-1.3071-8.9275 3.674-8.131 3.8389 0.61387 3.9934 0.53822 3.3284-1.63-2.5095-8.1829-8.8847-8.2595-27.83-0.33467-8.398 3.51-13.627 4.13-13.627 1.61 0-2.31-3.391-4.05-7.912-4.05-2.6231 0-9.0035-0.87874-14.179-1.9528-5.1751-1.074-12.912-2.3823-17.193-2.9073-11.059-1.3562-14.457-4.1601-16.109-13.289-0.36306-2.0072-1.3929-4.2572-2.2886-5-4.0471-3.3563-6.1437-17.73-2.8548-19.57 0.80513-0.45058 4.1333-4.8604 7.3959-9.7997 7.7336-11.708 10.006-13.775 15.386-13.994 2.34-0.0955 5.7452-0.80325 7.5671-1.5728 3.093-1.3065 3.4244-1.2523 5 0.81798 2.8152 3.699 13.024 9.2649 17.059 9.3002 1.9959 0.0175 4.3626 0.59033 5.2595 1.273 1.8713 1.4244 10.686 1.3822 13.485-0.0645 5.7388-2.9654 12.68-4.4023 18.182-3.7637 5.6243 0.65277 5.834 0.58444 12.755-4.1564 10.284-7.0442 11.736-8.1398 20.75-15.649 14.255-11.875 20.346-18.518 27.039-29.487 3.8505-6.3104 5.2641-7.2705 9.6675-6.5664 2.6814 0.42878 4.8347-0.008 7.997-1.6209 4.5524-2.3225 6.3378-2.0026 12.136 2.1742 1.2917 0.93055 2.3493 0.84081 4.9532-0.42028 9.6304-4.6641 11.517 11.149 3.9663 33.249-1.0335 3.025-2.2084 9.7284-2.6109 14.896-1.4262 18.311-16.999 39.198-20.173 27.058-0.66505-2.5432-2.8485-2.4479-7.7694 0.33905-4.488 2.5418-5.9198 5.7065-2.5818 5.7065 6.3129 0 1.9918 3.6474-5.8095 4.9037-6.4717 1.0422-16.232 4.9849-19.369 7.8245-1.5918 1.4406-2.4086 1.4805-6.8739 0.33609-6.4619-1.6561-9.4111-0.34504-10.338 4.5958-0.52466 2.7967-1.4483 3.8091-5.0885 5.5776-5.2556 2.5534-5.4576 3.2144-1.4132 4.6243 7.729 2.6944 7.6626 17.185-0.0839 18.297-1.7808 0.25551-2.5457 1.174-3.0522 3.665-0.76487 3.7617-0.42971 4.0108 5.9305 4.4066l4.3287 0.26939 3.192-6c3.3177-6.2365 4.954-7.5382 28.151-22.396 3.3-2.1137 10.5-6.7786 16-10.366 10.211-6.6608 48.107-30.513 68.114-42.872 11.332-6.9997 14.949-8.167 16.091-5.1918 0.70562 1.8388-3.5819 6.0077-9.7049 9.4364-3.2498 1.8198-7.5046 4.3862-33.722 20.34-5.3778 3.2725-11.128 7.0194-12.778 8.3264s-7.95 5.3173-14 8.9117c-16.525 9.8178-27.004 17.046-38.799 26.763-12.246 10.088-12.137 9.3738-2.6743 17.572l6.0928 5.2783 2.6903-2.1409c1.4797-1.1775 4.7153-3.3569 7.1903-4.8431s6.6651-4.8683 9.3113-7.5158 6.1018-5.4809 7.6791-6.2966c1.5773-0.81566 3.121-2.2806 3.4304-3.2554 0.30939-0.97479 2.9932-3.2262 5.9641-5.0032 2.9708-1.777 8.0567-5.8218 11.302-8.9886 3.2452-3.1668 8.7407-8.0078 12.212-10.758 3.4714-2.75 10.427-8.3846 15.456-12.521 14.38-11.82 22.64-15.84 22.64-11.01 0 1.2213-2.5383 3.9698-6.75 7.309-14.619 11.59-30.542 23.332-34.232 25.243-2.1342 1.1051-5.6569 3.8051-7.8282 6-6.3343 6.4031-12.891 11.266-16.157 11.984-1.6677 0.36628-3.0322 1.0169-3.0322 1.4458 0 1.69-6.8672 9.3266-10.674 11.87-2.2152 1.48-6.6821 5.3927-9.9266 8.6948-8.7326 8.8877-34.025 32.122-42.226 38.791-3.2881 2.6736-4.4848 3.0267-6.9233 2.0428zm10.115-14.41c3.5395-2.7842 3.3198-4.1202-0.61514-3.7408-2.7081 0.26111-3.3028 0.77191-3.5664 3.0634-0.37837 3.2884 0.6504 3.455 4.1816 0.67742zm8.2256-8.6701c-0.6935-0.69349-2.5907 0.71555-2.5907 1.9241 0 0.6631 0.57378 0.58723 1.5242-0.20152 0.83829-0.69572 1.3182-1.4709 1.0665-1.7226zm-85.016-121.25c-9.9525-5.8354-9.0026-9.5139 2.1772-8.4306 4.2618 0.41296 9.5487 0.84032 11.749 0.94968 2.2 0.10936 4.3775 0.25982 4.8389 0.33436 0.76054 0.12286-1.8122 3.8409-5.8024 8.3855-2.2496 2.5622-7.3032 2.0792-12.962-1.2389zm230.89-12.36c-8.4064-2.1156-10.463-5.709-4.4643-7.8001 3.6257-1.2639 3.6203-1.1566 0.48039-9.4985-3.17-8.41-3.97-9.35-7.98-9.35-4.5839 0-5.9004-2.0063-5.0908-7.7581 0.3671-2.6081 0.9393-6.9919 1.2716-9.7419l0.60411-5-3.8924 3.7181c-2.1408 2.045-6.6736 6.3872-10.073 9.6495-11.582 11.116-31.207 11.397-33.946 0.48615-1.0879-4.3345 0.19314-17.044 1.9951-19.794 5.1717-7.893 10.051 3.3639 6.0161 13.879-2.7952 7.2842 11.733 5.3765 20.32-2.6684 12.628-11.83 29.62-29.67 31.212-32.77 5.8271-11.343 8.661-54.516 3.8319-58.377-1.51-1.22-2.75-2.52-2.75-2.91 0-1.5-3.54-4.72-5.19-4.72-0.95911 0-3.3154-0.74941-5.2361-1.6654-6.4075-3.0555-23.179 5.3641-36.704 18.426-5.562 5.3716-8.3195 6.4629-12.117 4.7953-1.6168-0.71002-1.6357-0.55632-0.25616 2.0888 0.91553 1.7554 1.4915 5.6374 1.4953 10.078 0.005 5.3982 0.56309 8.3696 2.2104 11.76 5.2333 10.772-2.5937 23.718-10.554 17.456-1.4406-1.1332-4.0888-2.2738-5.8849-2.5346-3.1796-0.46176-4.7726 0.15778-10.063 3.9138-5.4454 3.8662-18.582-9.3422-19.861-19.97-0.94064-7.8134-0.2123-9.2846 6.3698-12.867 8.8305-4.8061 9.81-20.852 1.605-26.292-16.17-10.72-23.9-62.19-9.34-62.19 2.8381 0 3.8061-0.51277 4.709-2.4944 0.62509-1.3719 2.5448-3.3253 4.266-4.3408 2.1236-1.253 3.5904-3.2432 4.5637-6.1923 1.7021-5.1573 5.4959-9.9724 7.8573-9.9724 5.5372 0 16.058-14.158 12.634-17-2.1357-1.7724-1.8546-5.3691 0.59262-7.5838 6.092-5.5132 3.6779-11.162-3.4338-8.0344-5.2985 2.3299-16.799 3.9439-19.797 2.7785-5.3271-2.0709-48.066 3.5947-57.084 7.5673-3.4134 1.5036-6.6205 2.2855-7.9492 1.938-2.3-0.602-8.83 2.674-8.83 4.431 0 2.4056-6.5008 4.9643-11.085 4.3629-4.3525-0.57096-4.8553-0.37075-9.9143 3.9475-8.4425 7.2064-12.361 9.5888-17.09 10.39-4.1345 0.70062-4.4311 0.96506-4.7387 4.2253-0.474 5.02-8.56 11.98-13.921 11.98-3.248 0-17.251 44.46-17.251 54.77 0 2.6668-2.7113 4.9181-4.1683 3.4611-1.4715-1.4715 1.9839-25.759 5.733-40.297 0.789-3.06 1.435-6.61 1.435-7.89 0-3.992 4.2414-11.232 7.1801-12.257 6.1794-2.1541 6.9002-7.7331 1.0042-7.7721-1.2737-0.008-3.1862-0.48114-4.25-1.0505-2.6593-1.4232-5.3748 0.18862-8.4052 4.9891-4.2324 6.7045-13.874 6.1523-13.347-0.76444 0.44878-5.8897-2.6383-6.7524-7.8352-2.1895-3.9241 3.4454-6.3396 3.7709-8.6922 1.1713-2.3673-2.6159-2.1277-3.5035 2.3397-8.6651 5.498-6.3524 6.7706-17.386 3.0121-26.115-1.1794-2.7391-1.066-4.1067 0.95323-11.5 3.5484-12.992 3.7965-13.451 8.5917-15.918 2.425-1.243 9.03-6.275 14.678-11.178 5.649-4.903 11.62-9.614 13.27-10.469 1.65-0.85515 5.2526-3.2341 8.0059-5.2865 2.7532-2.0524 6.5782-4.5277 8.5-5.5006 1.922-0.973 4.394-2.583 5.494-3.578 1.1-0.994 7.175-3.9161 13.5-6.4925 6.325-2.5763 12.035-5.1173 12.69-5.6466 2.5405-2.0553 6.759-0.4924 7.7502 2.8713 0.6461 2.1928 1.7396 3.3888 3.5 3.828 3.397 0.84749 8.353 3.9634 15.06 9.4686l5.5 4.5143 11.3-0.27807c7.4684-0.18378 12.663-0.82354 15.321-1.8868 3.3828-1.3535 4.6174-1.4118 7.7825-0.36719 3.5856 1.1834 17.567 1.026 37.097-0.41749 3.575-0.26424 7.4-0.53037 8.5-0.59141s3.8 0.35712 6 0.92923c7.4466 1.9365 36.464 2.9818 41.485 1.4944 4.2432-1.2568 4.6779-1.1951 8.0538 1.1444 1.96 1.36 4.21 2.473 4.99 2.473 3.3512 0 28.915 10.704 31.716 13.279 2.6052 2.3962 2.8896 4.9452 0.75 6.7209-2.4045 1.9956-1.8433 3.197 4.0376 8.644 4.6971 4.3505 5.4564 5.5316 4.923 7.6569-1.09 4.342 1 6.699 5.95 6.699 6.1152 0 9.5433 6.3379 9.5754 17.703 0.007 2.3116 0.51561 5.4616 1.1313 7 3.0818 7.7003 4.7002 11.266 8.269 18.22 2.1386 4.1672 4.8877 8.7734 6.109 10.236 3.5982 4.3089 4.2608 19.782 3.1832 74.341l-0.57275 29-3.6921 10c-2.0307 5.5-4.2581 11.575-4.9499 13.5-1.3757 3.828-0.83864 18 0.68211 18 0.48356 0 1.7868-0.5625 2.8961-1.25 7.9115-4.9031 2.1453 28.751-6.418 37.458-11.833 12.032-22.465 20.588-26.277 21.146-9.3263 1.3655-22.078 1.5059-26.885 0.29606zm-192.67-3.4l-4.3349-3.75h-14.476c-14.182 0-14.555 0.0558-18.365 2.75-5.2457 3.7088-13.385-0.0153-10.976-5.0217 1.1401-2.3687 0.49198-17.371-0.81862-18.95-0.75093-0.90482-4.7491-1.3037-13.688-1.3658-26.348-0.18-29.739-3.08-24.445-20.92 3.7021-12.47 32.262-57.82 36.508-57.97 2.2285-0.0786 1.4318 2.5725-2.0212 6.726-2.1718 2.6123-4.2631 5.7917-4.6475 7.0654-0.38433 1.2736-1.9484 3.7486-3.4756 5.5-1.5273 1.7514-3.1019 4.2253-3.4993 5.4977-0.39733 1.2724-3.5587 8.2474-7.0254 15.5-7.7042 16.118-10.025 23.191-9.1472 27.871 1.2323 6.5686 1.1653 6.5505 20.419 5.528 19.153-1.0172 26.056-0.0166 21.366 3.0972-5.333 3.541-2.1108 21.769 3.6646 20.731 2.02-0.36 8.174-1.07 13.674-1.56 5.5-0.49573 11.638-1.187 13.639-1.5362 3.4314-0.59862 4.0258-0.26847 10.417 5.7867 9.1296 8.6495 6.6409 13.162-2.7694 5.0214zm18.556-2.5c-1.6478-2.3375-4.6758-7.0528-6.7289-10.479-2.0531-3.4257-4.9952-6.9742-6.538-7.8855-1.5428-0.91136-3.5315-2.8868-4.4194-4.3898-1.3014-2.2031-2.5953-2.8629-6.6753-3.4042-8.469-1.12-11.433-6.23-6.486-11.17 3.164-3.17 6.507-1.91 6.507 2.45 0 3.9226 0.85794 4.3688 4.0415 2.1019 4.171-2.97 7.958-0.9 7.958 4.36 0 1.0343 1.9125 4.0081 4.25 6.6085 7.2101 8.021 15.462 26.066 11.92 26.066-0.45676 0-2.1787-1.9125-3.8264-4.25zm-75.96-44.2c-0.91226-2.3773 0.51973-3.6317 8.1933-7.1771 10.508-4.8549 19.346-3.5227 21.026 3.1689 1.0708 4.2663-0.03648 4.689-4.0104 1.531-4.7883-3.8053-4.6279-3.8107-12.9 0.4342-7.249 3.72-11.401 4.4092-12.309 2.043zm213.29-13.22c-1.9066-1.9066-0.35333-4.4585 4.0833-6.7084 10.471-5.3097 12.95-18.423 5.4123-28.619-5.3142-7.1878-1.1868-9.2933 5.3681-2.7384 6.9069 6.9069 8.4902 19.892 3.5953 29.487-3.006 5.8921-15.39 11.648-18.459 8.5796zm-1.17-11.32c-10.08-4.3582-11.096-9.9844-3.5199-19.493l3.1749-3.985-2.4647-2.12c-14.979-12.884 6.557-46.082 26.627-41.045 3.4653 0.86973 12.683 12.412 12.683 15.881 0 4.6706-2.6743 3.1615-6.1948-3.4958-3.9013-7.3772-5.5634-7.9348-14.115-4.7352-6.1424 2.2982-7.5228 3.5524-5.8028 5.2723 1.9928 1.9928 1.2177 3.7129-1.6731 3.7129-8.7234 0-11.971 16.425-4.7402 23.973 3.2088 3.3493 2.7497 6.481-1.5547 10.605-3.6228 3.4708-3.6188 3.8615 0.0809 8.0753 3.2557 3.708 3.6547 5.2925 1.8 7.1472-1.3738 1.3738-1.5816 1.3838-4.3 0.2085zm-173.01-10.76c-0.30114-1.5125-1.0233-4.1-1.6048-5.75-2.1904-6.215-2.18-6.2965 1.0174-7.9499 3.6682-1.8969 3.9293-3.1616 0.84682-4.101-5.6415-1.7192-6.9741-5.1542-4.0059-10.326l1.7441-3.0389-3.947-4.0421c-4.4-4.5-6.057-5-6.831-2.04-0.33708 1.289-1.3562 1.9946-2.8666 1.9847-3.5654-0.0233-4.7296-1.1789-6.8743-6.8234-4.5091-11.867-0.87287-19.748 7.1881-15.58 1.7693 0.91495 4.0816 1.3245 5.4868 0.97181 2.4176-0.60679 10.141 1.409 15.856 4.1386 2.8605 1.3661 4.5356 3.2719 14.223 16.181 6.5732 8.7592 5.2587 13.227-2.8198 9.5837-3.614-1.6297-4.136-1.6522-5.549-0.2391-1.4131 1.413-1.2201 1.6719 2.0507 2.7514 5.2643 1.7374 6.4106 4.4964 3.0376 7.3114-9.887 8.2514-10.372 8.8224-9.8234 11.565 0.36869 1.8434-0.13757 3.5443-1.6135 5.4206-2.7444 3.489-4.8184 3.483-5.515-0.0158zm203.3-5.3453c-1.2875-0.72055-1.549-2.5752-1.3933-9.8819l0.19172-8.9949-4.7963-7.0307c-4.93-7.22-5.87-9.99-3.37-9.99 1.5431 0 5.5511 4.5644 5.6065 6.3849 0.0187 0.61333 0.90339 2.9151 1.9661 5.1151s1.9474 4.4146 1.9661 4.9213c0.0187 0.50669 0.66393 1.6317 1.4339 2.5 0.76999 0.86831 1.6936 3.7975 2.0526 6.5093 0.35892 2.7118 0.88297 5.3033 1.1646 5.759 1.6571 2.6812-2.025 6.281-4.823 4.7152zm-237.46-26.48c-2.9728-3.3402-3.4502-3.5258-7.5037-2.918-5.748 0.86198-8.614-1.9569-9.4874-9.3314-1.0272-8.6732 3.4617-10.586 12.851-5.4755 5.5699 3.0315 6.3677 4.1656 8.3882 11.923 2.6535 10.188 1.3002 12.036-4.2481 5.8021z"/>
</svg>
